<svg width="50" height="51" viewBox="0 0 50 51" fill="none" xmlns="http://www.w3.org/2000/svg">
<g clip-path="url(#clip0_419_268)">
<path d="M50 25.9091C50 22.8511 49.4499 19.9217 48.445 17.2135L25 16.1265L1.55498 17.2134C0.550098 19.9217 0 22.8511 0 25.9091C0 28.9671 0.550098 31.8965 1.55498 34.6047L25 35.6917L48.445 34.6048C49.4499 31.8965 50 28.9671 50 25.9091Z" fill="#F0F0F0"/>
<path d="M25 50.9091C35.7491 50.9091 44.9127 44.1247 48.445 34.6047H1.55499C5.08732 44.1247 14.2509 50.9091 25 50.9091Z" fill="#0052B4"/>
<path d="M1.55499 17.2135H48.4451C44.9127 7.69343 35.7491 0.909058 25 0.909058C14.2509 0.909058 5.08732 7.69343 1.55499 17.2135V17.2135Z" fill="#D80027"/>
<path d="M31.5218 18.3004H27.1739L27.8986 12.8656L30.7971 10.6917L33.6956 12.8656V17.2134L31.5218 18.3004Z" fill="#338AF3"/>
<path d="M18.4782 18.3004H22.8261L22.1014 12.8656L19.2028 10.6917L16.3044 12.8656V17.2134L18.4782 18.3004Z" fill="#338AF3"/>
<path d="M27.8986 18.3004H22.1014V12.8656L25 10.6917L27.8986 12.8656V18.3004Z" fill="#0052B4"/>
<path d="M16.3044 17.2136V29.17C16.3044 32.017 17.6796 34.5488 19.8007 36.136L21.3224 35.7553L23.2428 37.6871C23.8106 37.8041 24.3982 37.8657 25.0001 37.8657C25.5987 37.8657 26.1834 37.8049 26.7482 37.6891L28.9403 35.8639L30.1993 36.1325C32.3195 34.5454 33.6957 32.0162 33.6957 29.17V17.2136H16.3044Z" fill="#F0F0F0"/>
<path d="M16.3044 17.2134H19.7826V20.6917H16.3044V17.2134Z" fill="#D80027"/>
<path d="M23.2608 17.2134H26.7391V20.6917H23.2608V17.2134Z" fill="#D80027"/>
<path d="M30.2174 17.2134H33.6956V20.6917H30.2174V17.2134Z" fill="#D80027"/>
<path d="M19.7826 20.6917H23.2608V24.1699H19.7826V20.6917Z" fill="#D80027"/>
<path d="M26.7391 20.6917H30.2174V24.1699H26.7391V20.6917Z" fill="#D80027"/>
<path d="M16.3044 24.1688H19.7826V27.647H16.3044V24.1688Z" fill="#D80027"/>
<path d="M19.7826 27.6472H23.2608V31.1254H19.7826V27.6472Z" fill="#D80027"/>
<path d="M23.2608 24.1688H26.7391V27.647H23.2608V24.1688Z" fill="#D80027"/>
<path d="M30.2174 24.1688H33.6956V27.647H30.2174V24.1688Z" fill="#D80027"/>
<path d="M26.7391 27.6472H30.2174V31.1254H26.7391V27.6472Z" fill="#D80027"/>
<path d="M23.2608 31.1254H26.7391V34.6036H23.2608V31.1254Z" fill="#D80027"/>
<path d="M19.7826 31.1257H16.5288C16.8272 32.4186 17.414 33.6017 18.2185 34.6039H19.7826V31.1257Z" fill="#D80027"/>
<path d="M30.2174 34.604H31.7814C32.5861 33.6018 33.1726 32.4186 33.4711 31.1257H30.2174V34.604Z" fill="#D80027"/>
<path d="M19.7826 34.6039V36.1216C20.7942 36.8828 21.9764 37.4286 23.2608 37.6906V34.6039H19.7826Z" fill="#D80027"/>
<path d="M26.7391 34.6039V37.6906C28.0236 37.4288 29.2057 36.8828 30.2174 36.1216V34.6039H26.7391Z" fill="#D80027"/>
</g>
<defs>
<clipPath id="clip0_419_268">
<rect width="50" height="50" fill="white" transform="translate(0 0.909058)"/>
</clipPath>
</defs>
</svg>
