<svg width="50" height="51" viewBox="0 0 50 51" fill="none" xmlns="http://www.w3.org/2000/svg">
<g clip-path="url(#clip0_419_268)">
<path d="M25 50.9091C38.8071 50.9091 50 39.7162 50 25.9091C50 12.1019 38.8071 0.909058 25 0.909058C11.1929 0.909058 0 12.1019 0 25.9091C0 39.7162 11.1929 50.9091 25 50.9091Z" fill="#F0F0F0"/>
<path d="M33.1198 19.3873H29.8489C29.876 19.7468 29.8913 20.1095 29.8913 20.4742C29.8913 22.8926 29.2868 25.2366 28.233 26.9052C27.9079 27.4198 27.3616 28.1466 26.6304 28.6368V19.3872H23.3695V28.6368C22.6384 28.1466 22.092 27.4199 21.7669 26.9052C20.713 25.2366 20.1086 22.8926 20.1086 20.4742C20.1086 20.1095 20.124 19.7467 20.151 19.3873H16.8801C16.8591 19.745 16.8477 20.1073 16.8477 20.4742C16.8477 27.1789 20.4285 32.4308 24.9998 32.4308C29.5711 32.4308 33.152 27.1789 33.152 20.4742C33.1522 20.1073 33.1407 19.745 33.1198 19.3873V19.3873Z" fill="#D80027"/>
<path d="M10.3261 12.8656H13.5869V15.0395H16.8477V12.8656H20.1086V15.0395H23.3694V12.8656H26.6303V15.0395H29.8911V12.8656H33.1519V15.0395H36.4128V12.8656H39.6736V15.0395H47.519C43.4756 6.67712 34.9114 0.909058 25 0.909058C15.0886 0.909058 6.5244 6.67712 2.48065 15.0395H10.3261V12.8656Z" fill="#6DA544"/>
<path d="M39.6739 36.7786V38.9525H36.4131V36.7786H33.1522V38.9525H29.8914V36.7786H26.6306V38.9525H23.3697V36.7786H20.1089V38.9525H16.848V36.7786H13.5869V38.9525H10.3261V36.7786H2.48065C6.5244 45.141 15.0885 50.909 25 50.909C34.9115 50.909 43.4756 45.141 47.5193 36.7786H39.6739Z" fill="#D80027"/>
</g>
<defs>
<clipPath id="clip0_419_268">
<rect width="50" height="50" fill="white" transform="translate(0 0.909058)"/>
</clipPath>
</defs>
</svg>
