<svg width="50" height="51" viewBox="0 0 50 51" fill="none" xmlns="http://www.w3.org/2000/svg">
<g clip-path="url(#clip0_419_268)">
<path d="M25 50.9091C38.8071 50.9091 50 39.7162 50 25.9091C50 12.1019 38.8071 0.909058 25 0.909058C11.1929 0.909058 0 12.1019 0 25.9091C0 39.7162 11.1929 50.9091 25 50.9091Z" fill="#F0F0F0"/>
<path d="M33.6956 25.909C33.6956 28.083 29.8024 33.5177 25 33.5177C20.1975 33.5177 16.3044 28.083 16.3044 25.909C16.3044 21.1065 20.1975 17.2134 25 17.2134C29.8024 17.2134 33.6956 21.1065 33.6956 25.909Z" fill="#D80027"/>
<path d="M33.6956 25.9091C33.6956 30.7116 29.8024 34.6047 25 34.6047C20.1975 34.6047 16.3044 30.7116 16.3044 25.9091" fill="#0052B4"/>
<path d="M34.2163 33.5954L36.5217 31.29L38.0587 32.8269L35.7532 35.1324L34.2163 33.5954Z" fill="black"/>
<path d="M30.3728 37.4379L32.6782 35.1325L34.2152 36.6694L31.9097 38.9748L30.3728 37.4379Z" fill="black"/>
<path d="M38.8275 38.206L41.1329 35.9006L42.6699 37.4375L40.3644 39.743L38.8275 38.206Z" fill="black"/>
<path d="M34.9841 42.0491L37.2895 39.7437L38.8264 41.2807L36.521 43.5861L34.9841 42.0491Z" fill="black"/>
<path d="M36.5218 35.9009L38.8272 33.5955L40.3641 35.1324L38.0587 37.4378L36.5218 35.9009Z" fill="black"/>
<path d="M32.6793 39.7433L34.9847 37.4379L36.5217 38.9749L34.2163 41.2803L32.6793 39.7433Z" fill="black"/>
<path d="M38.8376 18.2269L32.6899 12.0791L34.2268 10.5422L40.3746 16.69L38.8376 18.2269Z" fill="black"/>
<path d="M32.6887 16.6906L30.3833 14.3852L31.9202 12.8483L34.2256 15.1537L32.6887 16.6906Z" fill="black"/>
<path d="M36.5311 20.5339L34.2257 18.2285L35.7626 16.6916L38.068 18.997L36.5311 20.5339Z" fill="black"/>
<path d="M37.2991 12.079L34.9937 9.77357L36.5306 8.2366L38.836 10.542L37.2991 12.079Z" fill="black"/>
<path d="M41.1436 15.9227L38.8381 13.6173L40.3751 12.0804L42.6805 14.3858L41.1436 15.9227Z" fill="black"/>
<path d="M8.86273 35.8965L15.0105 42.0443L13.4736 43.5813L7.32577 37.4335L8.86273 35.8965Z" fill="black"/>
<path d="M15.0102 37.4323L17.3156 39.7377L15.7787 41.2746L13.4733 38.9692L15.0102 37.4323Z" fill="black"/>
<path d="M11.1675 33.5906L13.4729 35.8961L11.9359 37.433L9.63052 35.1276L11.1675 33.5906Z" fill="black"/>
<path d="M13.4732 31.2846L19.621 37.4324L18.084 38.9694L11.9362 32.8216L13.4732 31.2846Z" fill="black"/>
<path d="M15.0099 9.7688L8.8621 15.9166L7.32513 14.3796L13.4729 8.23183L15.0099 9.7688Z" fill="black"/>
<path d="M17.3153 12.074L11.1675 18.2218L9.63055 16.6848L15.7783 10.537L17.3153 12.074Z" fill="black"/>
<path d="M19.6229 14.3807L13.4751 20.5285L11.9382 18.9916L18.086 12.8438L19.6229 14.3807Z" fill="black"/>
</g>
<defs>
<clipPath id="clip0_419_268">
<rect width="50" height="50" fill="white" transform="translate(0 0.909058)"/>
</clipPath>
</defs>
</svg>
