<svg width="50" height="51" viewBox="0 0 50 51" fill="none" xmlns="http://www.w3.org/2000/svg">
<g clip-path="url(#clip0_419_268)">
<path d="M25 50.9091C38.8071 50.9091 50 39.7162 50 25.9091C50 12.1019 38.8071 0.909058 25 0.909058C11.1929 0.909058 0 12.1019 0 25.9091C0 39.7162 11.1929 50.9091 25 50.9091Z" fill="#D80027"/>
<path d="M39.7742 21.4256H28.4877L25 10.6917L21.5123 21.4256H10.2258L19.3567 28.0596L15.8689 38.7939L25 32.1598L34.131 38.794L30.6432 28.0597L39.7742 21.4256ZM21.9123 27.2292L23.0917 23.5995H26.9082L28.0877 27.2292V27.2293L25 29.4726L21.9124 27.2293L21.9123 27.2292ZM26.2019 21.4256H23.7981L25 17.7264L26.2019 21.4256ZM29.9368 25.8858L29.1939 23.5996H33.0835L29.9368 25.8858ZM20.8059 23.5996L20.0631 25.8858L16.9163 23.5996H20.8059ZM20.004 33.1025L21.2059 29.4034L23.1508 30.8163L20.004 33.1025ZM26.8492 30.8164L28.794 29.4035L29.996 33.1026L26.8492 30.8164Z" fill="#FFDA44"/>
</g>
<defs>
<clipPath id="clip0_419_268">
<rect width="50" height="50" fill="white" transform="translate(0 0.909058)"/>
</clipPath>
</defs>
</svg>
