<svg width="50" height="51" viewBox="0 0 50 51" fill="none" xmlns="http://www.w3.org/2000/svg">
<g clip-path="url(#clip0_419_268)">
<path d="M25 50.9091C38.8071 50.9091 50 39.7162 50 25.9091C50 12.1019 38.8071 0.909058 25 0.909058C11.1929 0.909058 0 12.1019 0 25.9091C0 39.7162 11.1929 50.9091 25 50.9091Z" fill="#F0F0F0"/>
<path d="M48.445 17.2134H1.55498C0.550098 19.9217 0 22.851 0 25.909C0 28.9671 0.550098 31.8964 1.55498 34.6047H48.4451C49.45 31.8964 50 28.9671 50 25.909C50 22.851 49.45 19.9217 48.445 17.2134Z" fill="#D80027"/>
<path d="M25 0.909058C17.4228 0.909058 10.6334 4.28054 6.04874 9.60466H43.9512C39.3666 4.28054 32.5773 0.909058 25 0.909058V0.909058Z" fill="#0052B4"/>
<path d="M43.9513 42.2134H6.04874C10.6334 47.5376 17.4228 50.909 25 50.909C32.5773 50.909 39.3666 47.5376 43.9513 42.2134Z" fill="#0052B4"/>
</g>
<defs>
<clipPath id="clip0_419_268">
<rect width="50" height="50" fill="white" transform="translate(0 0.909058)"/>
</clipPath>
</defs>
</svg>
